Coordinates
version=1
nRows=5
nColumns=40
inDegrees=yes

Units are S.I. units (second, meters, Newtons, ...)
Angles are in degrees.

endheader
time	pelvis_tilt	pelvis_list	pelvis_rotation	pelvis_tx	pelvis_ty	pelvis_tz	hip_flexion_r	hip_adduction_r	hip_rotation_r	knee_angle_r	knee_angle_r_beta	ankle_angle_r	subtalar_angle_r	mtp_angle_r	hip_flexion_l	hip_adduction_l	hip_rotation_l	knee_angle_l	knee_angle_l_beta	ankle_angle_l	subtalar_angle_l	mtp_angle_l	lumbar_extension	lumbar_bending	lumbar_rotation	arm_flex_r	arm_add_r	arm_rot_r	elbow_flex_r	pro_sup_r	wrist_flex_r	wrist_dev_r	arm_flex_l	arm_add_l	arm_rot_l	elbow_flex_l	pro_sup_l	wrist_flex_l	wrist_dev_l
      0.44000000	     -3.64296000	      2.37328774	     -1.59002143	     -0.55779431	      0.88427145	      1.07603200	      6.43962028	     -6.51195109	     -8.18221023	    -55.92277344	     -0.97603652	    -17.67445904	    -11.43446110	      6.47795342	     26.13000886	     -1.72981066	     12.45786276	    -31.70107094	     -0.55328806	      6.22772114	     13.35849711	      4.04403827	     -1.36032915	     -4.67662288	      0.57794852	     -2.71603520	     -9.46798431	    -15.98065072	     32.67166754	     89.95437384	      0.00000000	      0.00000000	     -7.40534468	      8.80348436	     16.45668912	     21.01322703	     89.95437384	      0.00000000	      0.00000000
      0.45000000	     -3.46211924	      2.53682799	     -1.32872677	     -0.54866497	      0.88524860	      1.07483036	      7.91030514	     -6.82248500	     -7.98242368	    -58.43152872	     -1.01982256	    -18.35179667	    -12.81963740	      7.58710466	     25.13220346	     -2.06622144	     12.50691544	    -31.46991479	     -0.54925363	      6.79540678	     12.85018160	      3.90295758	     -1.70919964	     -4.90583286	      0.17386025	     -2.95932973	     -9.27118031	    -15.66407182	     31.93611109	     89.95437384	      0.00000000	      0.00000000	     -6.68623255	      8.97356912	     16.29028364	     21.78765938	     89.95437384	      0.00000000	      0.00000000
      0.46000000	     -3.10908237	      2.25988662	     -0.86338548	     -0.53943464	      0.88651928	      1.07359983	      8.93160922	     -6.62020529	     -8.05547365	    -60.36508791	     -1.05356954	    -18.35615258	    -12.90178632	      7.58392453	     24.03568925	     -1.92021880	     12.48418173	    -31.41510301	     -0.54829698	      7.07845781	     12.43778104	      3.78558793	     -2.28067790	     -4.62076330	     -0.44578521	     -3.30074221	     -9.11631541	    -15.47220883	     31.50667883	     89.95437384	      0.00000000	      0.00000000	     -5.85969614	      9.10251980	     16.17156599	     22.40534584	     89.95437384	      0.00000000	      0.00000000
      0.47000000	     -2.95106659	      2.57776103	     -0.68802220	     -0.53030465	      0.88745591	      1.07260944	     10.42486284	     -7.04960212	     -7.86927368	    -62.51309306	     -1.09105930	    -17.79611031	    -14.87717054	      8.19173935	     22.97740481	     -2.45391614	     12.35269359	    -31.05596105	     -0.54202877	      8.06541110	     11.91334348	      3.54606030	     -2.57113416	     -5.02885095	     -0.84445327	     -3.39938357	     -8.92363425	    -14.96277142	     30.45554936	     89.95437384	      0.00000000	      0.00000000	     -5.20705994	      9.32646072	     16.09576140	     23.27839135	     89.95437384	      0.00000000	      0.00000000
      0.48000000	     -2.96595946	      2.52861167	     -0.33033130	     -0.52158718	      0.88814760	      1.07156401	     12.15260683	     -7.04727696	     -7.93870781	    -64.59486846	     -1.12739313	    -15.64537754	    -15.46311953	     19.43113501	     22.25685460	     -2.59985121	     12.09000529	    -30.85036996	     -0.53844053	      8.16451968	     11.97964221	      2.64893600	     -2.73999942	     -4.99047597	     -1.34388817	     -3.66420162	     -8.76724710	    -14.57156580	     29.80364531	     89.95437384	      0.00000000	      0.00000000	     -4.53078940	      9.51949717	     15.99588171	     24.27039467	     89.95437384	      0.00000000	      0.00000000
